<svg width="254" height="23" viewBox="0 0 254 23" fill="none" xmlns="http://www.w3.org/2000/svg">
<g clip-path="url(#clip0_235_43)">
<path d="M45.71 21L40.64 2.8H42.304L45.502 14.916C45.6407 15.4533 45.762 15.93 45.866 16.346C45.97 16.762 46.0653 17.126 46.152 17.438C46.204 17.7153 46.2647 17.9927 46.334 18.27C46.4033 18.53 46.4727 18.8073 46.542 19.102H46.568C46.6547 18.7553 46.7413 18.4173 46.828 18.088C46.932 17.7413 47.0273 17.3773 47.114 16.996C47.218 16.6493 47.3133 16.3027 47.4 15.956C47.504 15.592 47.5993 15.2453 47.686 14.916L51.066 2.8H52.782L56.11 14.812C56.162 15.0027 56.214 15.202 56.266 15.41C56.318 15.6007 56.37 15.7913 56.422 15.982C56.578 16.5367 56.7253 17.074 56.864 17.594C57.0027 18.0967 57.1327 18.5993 57.254 19.102H57.28C57.332 18.8073 57.3927 18.5127 57.462 18.218C57.5487 17.9233 57.6353 17.6287 57.722 17.334C57.826 16.9007 57.9213 16.476 58.008 16.06C58.112 15.6267 58.2247 15.1933 58.346 14.76L61.544 2.8H63.182L58.06 21H56.37L52.782 8.104C52.6953 7.80933 52.6087 7.51467 52.522 7.22C52.4527 6.908 52.3747 6.596 52.288 6.284C52.2187 6.024 52.1493 5.77267 52.08 5.53C52.028 5.27 51.9673 5.01867 51.898 4.776H51.872C51.8027 5.036 51.7333 5.30467 51.664 5.582C51.5947 5.85933 51.5253 6.13667 51.456 6.414C51.3867 6.69133 51.3173 6.97733 51.248 7.272C51.1787 7.56667 51.092 7.85267 50.988 8.13L47.374 21H45.71ZM63.0037 21L70.2317 2.8H71.7397L78.9677 21H77.3817L72.3377 8C72.251 7.77467 72.1557 7.54067 72.0517 7.298C71.965 7.05533 71.8697 6.804 71.7657 6.544C71.6443 6.19733 71.5143 5.842 71.3757 5.478C71.2543 5.114 71.1157 4.75 70.9597 4.386H70.9337C70.8297 4.71533 70.7083 5.04467 70.5697 5.374C70.4483 5.686 70.3357 6.00667 70.2317 6.336C70.1277 6.61333 70.0237 6.89067 69.9197 7.168C69.8157 7.44533 69.703 7.72267 69.5817 8L64.6157 21H63.0037ZM66.2277 15.15L66.7477 13.798H75.3797L75.8997 15.15H66.2277ZM87.2944 21.312C85.925 21.312 84.677 21.0867 83.5504 20.636C82.4237 20.168 81.5224 19.466 80.8464 18.53C80.1877 17.594 79.8584 16.4413 79.8584 15.072L81.4964 14.89C81.4964 16.5713 82.0424 17.854 83.1344 18.738C84.2264 19.6047 85.6217 20.038 87.3204 20.038C88.4124 20.038 89.357 19.8907 90.1544 19.596C90.9517 19.284 91.5757 18.8333 92.0264 18.244C92.4944 17.6373 92.7284 16.9007 92.7284 16.034C92.7284 15.2193 92.503 14.5867 92.0524 14.136C91.619 13.6853 91.0557 13.3647 90.3624 13.174C89.6864 12.966 88.7244 12.7493 87.4764 12.524C87.3204 12.4893 87.1557 12.4633 86.9824 12.446C86.809 12.4113 86.6444 12.368 86.4884 12.316C85.1884 12.0733 84.105 11.77 83.2384 11.406C82.3717 11.042 81.6697 10.5393 81.1324 9.898C80.6124 9.25667 80.3524 8.43333 80.3524 7.428C80.3524 6.35333 80.6384 5.452 81.2104 4.724C81.7997 3.97867 82.5624 3.424 83.4984 3.06C84.4517 2.67867 85.483 2.488 86.5924 2.488C88.5857 2.488 90.2064 2.94733 91.4544 3.866C92.7024 4.76733 93.4217 6.232 93.6124 8.26L92.0264 8.546C91.9917 6.96867 91.4804 5.78133 90.4924 4.984C89.5044 4.16933 88.1957 3.762 86.5664 3.762C85.769 3.762 85.015 3.90067 84.3044 4.178C83.5937 4.438 83.013 4.83667 82.5624 5.374C82.129 5.91133 81.9124 6.57 81.9124 7.35C81.9124 8.11267 82.1637 8.728 82.6664 9.196C83.169 9.664 83.819 10.028 84.6164 10.288C85.4137 10.5307 86.4364 10.756 87.6844 10.964C87.7017 10.9813 87.719 10.99 87.7364 10.99C87.771 10.99 87.8057 10.99 87.8404 10.99C89.2964 11.2327 90.4664 11.51 91.3504 11.822C92.2344 12.134 92.9364 12.6193 93.4564 13.278C93.9937 13.9193 94.2624 14.8033 94.2624 15.93C94.2624 17.0913 93.9677 18.0793 93.3784 18.894C92.789 19.7087 91.9744 20.3153 90.9344 20.714C89.8944 21.1127 88.681 21.312 87.2944 21.312ZM97.7143 21V2.8H99.9243L104.838 15.15C104.96 15.462 105.072 15.774 105.176 16.086C105.298 16.3807 105.419 16.6753 105.54 16.97C105.714 17.4033 105.87 17.8193 106.008 18.218C106.164 18.6167 106.312 18.998 106.45 19.362C106.554 19.0847 106.667 18.7813 106.788 18.452C106.91 18.1227 107.04 17.7847 107.178 17.438C107.317 17.074 107.456 16.71 107.594 16.346C107.733 15.9647 107.872 15.6007 108.01 15.254L113.054 2.8H115.212V21H113.704V8.624C113.704 7.65333 113.73 6.362 113.782 4.75C113.592 5.25267 113.41 5.738 113.236 6.206C113.063 6.65667 112.89 7.09 112.716 7.506C112.647 7.714 112.569 7.91333 112.482 8.104C112.396 8.29467 112.318 8.48533 112.248 8.676L107.256 21H105.592L100.574 8.52C100.453 8.26 100.34 7.98267 100.236 7.688C100.132 7.376 100.02 7.05533 99.8983 6.726C99.7596 6.39667 99.6296 6.06733 99.5083 5.738C99.4043 5.39133 99.2829 5.062 99.1443 4.75H99.1183C99.1356 5.04467 99.1443 5.348 99.1443 5.66C99.1616 5.95467 99.1789 6.258 99.1963 6.57C99.2136 7.31533 99.2223 7.96533 99.2223 8.52V21H97.7143ZM126.279 21V2.8H132.779C134.044 2.8 135.11 2.94733 135.977 3.242C136.861 3.53667 137.563 4.03933 138.083 4.75C138.603 5.44333 138.863 6.40533 138.863 7.636C138.863 8.71067 138.577 9.62067 138.005 10.366C137.433 11.094 136.635 11.588 135.613 11.848L135.509 11.51C136.895 11.77 137.918 12.2727 138.577 13.018C139.235 13.7633 139.565 14.786 139.565 16.086C139.565 17.3167 139.296 18.296 138.759 19.024C138.221 19.7347 137.467 20.246 136.497 20.558C135.526 20.8527 134.295 21 132.805 21H126.279ZM132.831 19.7C134.044 19.7 135.006 19.6047 135.717 19.414C136.445 19.2233 137.008 18.868 137.407 18.348C137.823 17.8107 138.031 17.0567 138.031 16.086C138.031 15.0287 137.788 14.2313 137.303 13.694C136.817 13.1393 136.202 12.784 135.457 12.628C134.711 12.4547 133.793 12.368 132.701 12.368H127.813V19.7H132.831ZM132.441 11.042C133.637 11.042 134.573 10.938 135.249 10.73C135.942 10.5047 136.462 10.1493 136.809 9.664C137.155 9.16133 137.329 8.47667 137.329 7.61C137.329 6.69133 137.138 5.98067 136.757 5.478C136.375 4.958 135.855 4.60267 135.197 4.412C134.538 4.22133 133.697 4.126 132.675 4.126H127.813V11.042H132.441ZM147.998 21.312C147.097 21.312 146.274 21.1733 145.528 20.896C144.8 20.6187 144.176 20.2027 143.656 19.648C143.084 19.0587 142.651 18.348 142.356 17.516C142.079 16.6667 141.94 15.6787 141.94 14.552C141.94 13.4773 142.088 12.5067 142.382 11.64C142.694 10.7733 143.145 10.0367 143.734 9.43C144.272 8.89267 144.896 8.48533 145.606 8.208C146.334 7.93067 147.106 7.792 147.92 7.792C148.891 7.792 149.775 7.99133 150.572 8.39C151.37 8.78867 152.028 9.36933 152.548 10.132C152.964 10.7213 153.276 11.432 153.484 12.264C153.692 13.0787 153.779 13.928 153.744 14.812H143.552C143.57 16.6493 143.968 17.984 144.748 18.816C145.546 19.648 146.646 20.064 148.05 20.064C149.246 20.064 150.191 19.778 150.884 19.206C151.578 18.6167 152.02 17.802 152.21 16.762L153.64 16.918C153.38 18.3047 152.756 19.388 151.768 20.168C150.798 20.9307 149.541 21.312 147.998 21.312ZM143.578 13.824L143.188 13.59H152.548L152.236 13.798C152.219 13.2607 152.124 12.7147 151.95 12.16C151.777 11.6053 151.56 11.12 151.3 10.704C150.919 10.132 150.434 9.716 149.844 9.456C149.272 9.17867 148.622 9.04 147.894 9.04C147.236 9.04 146.638 9.15267 146.1 9.378C145.58 9.586 145.147 9.88933 144.8 10.288C144.107 11.068 143.7 12.134 143.578 13.486V13.824ZM156.736 21V8.078H158.244V11.25L158.088 10.964C158.348 9.95867 158.859 9.17867 159.622 8.624C160.385 8.06933 161.373 7.792 162.586 7.792C163.383 7.792 164.085 7.91333 164.692 8.156C165.316 8.38133 165.845 8.71067 166.278 9.144C166.729 9.612 167.023 10.184 167.162 10.86C167.301 11.5187 167.37 12.29 167.37 13.174V21H165.81V13.434C165.81 13.4167 165.81 13.3993 165.81 13.382C165.81 13.3647 165.81 13.3473 165.81 13.33C165.81 12.55 165.767 11.9087 165.68 11.406C165.593 10.9033 165.377 10.4613 165.03 10.08C164.701 9.69867 164.302 9.43867 163.834 9.3C163.366 9.16133 162.82 9.092 162.196 9.092C161.208 9.092 160.298 9.43 159.466 10.106C158.651 10.7647 158.244 11.9867 158.244 13.772V21H156.736ZM176.413 21.286C175.078 21.286 173.943 21.0087 173.007 20.454C172.088 19.8993 171.395 19.1193 170.927 18.114C170.459 17.0913 170.225 15.904 170.225 14.552C170.225 13.252 170.467 12.0907 170.953 11.068C171.455 10.0453 172.175 9.248 173.111 8.676C174.047 8.08667 175.147 7.792 176.413 7.792C177.921 7.792 179.134 8.19067 180.053 8.988C180.971 9.768 181.578 10.8253 181.873 12.16L180.417 12.446C180.174 11.3713 179.741 10.5393 179.117 9.95C178.493 9.36067 177.583 9.066 176.387 9.066C175.572 9.066 174.87 9.20467 174.281 9.482C173.709 9.742 173.241 10.1233 172.877 10.626C172.53 11.0767 172.27 11.64 172.097 12.316C171.941 12.992 171.863 13.7373 171.863 14.552C171.863 16.2853 172.218 17.6287 172.929 18.582C173.639 19.5353 174.801 20.012 176.413 20.012C177.574 20.012 178.493 19.7607 179.169 19.258C179.845 18.7553 180.304 17.9493 180.547 16.84L181.977 16.996C181.803 17.8627 181.465 18.6167 180.963 19.258C180.477 19.8993 179.845 20.402 179.065 20.766C178.285 21.1127 177.401 21.286 176.413 21.286ZM184.742 21V2.8H186.25V11.224L186.094 10.964C186.354 9.95867 186.865 9.17867 187.628 8.624C188.408 8.06933 189.396 7.792 190.592 7.792C191.389 7.792 192.091 7.91333 192.698 8.156C193.322 8.38133 193.85 8.71067 194.284 9.144C194.734 9.612 195.029 10.184 195.168 10.86C195.306 11.5187 195.376 12.29 195.376 13.174V21H193.816V13.408C193.816 13.3907 193.816 13.3733 193.816 13.356C193.816 13.3387 193.816 13.3213 193.816 13.304C193.816 12.524 193.772 11.8913 193.686 11.406C193.599 10.9033 193.382 10.4613 193.036 10.08C192.706 9.69867 192.308 9.43867 191.84 9.3C191.372 9.16133 190.826 9.092 190.202 9.092C189.196 9.092 188.286 9.42133 187.472 10.08C186.657 10.7213 186.25 11.9347 186.25 13.72V21H184.742ZM199.037 21V8.078H200.545V11.172L200.415 10.86C200.519 10.4613 200.649 10.1147 200.805 9.82C200.961 9.508 201.177 9.23067 201.455 8.988C201.836 8.624 202.295 8.338 202.833 8.13C203.387 7.90467 204.037 7.792 204.783 7.792C205.961 7.792 206.915 8.104 207.643 8.728C208.371 9.352 208.821 10.2273 208.995 11.354H208.735C208.839 10.8513 208.995 10.4093 209.203 10.028C209.411 9.62933 209.679 9.274 210.009 8.962C210.39 8.598 210.841 8.312 211.361 8.104C211.898 7.896 212.531 7.792 213.259 7.792C214.247 7.792 215.061 7.98267 215.703 8.364C216.361 8.728 216.855 9.28267 217.185 10.028C217.514 10.756 217.679 11.6833 217.679 12.81V21H216.119V13.356C216.119 12.5587 216.075 11.9 215.989 11.38C215.902 10.86 215.685 10.4093 215.339 10.028C215.027 9.664 214.654 9.42133 214.221 9.3C213.787 9.16133 213.311 9.092 212.791 9.092C211.855 9.092 211.066 9.36933 210.425 9.924C210.026 10.288 209.705 10.7733 209.463 11.38C209.22 11.9693 209.099 12.7493 209.099 13.72V21H207.565V13.434V13.33C207.565 12.5153 207.521 11.8567 207.435 11.354C207.348 10.8513 207.131 10.4093 206.785 10.028C206.473 9.68133 206.1 9.43867 205.667 9.3C205.233 9.16133 204.757 9.092 204.237 9.092C203.786 9.092 203.344 9.17 202.911 9.326C202.495 9.46467 202.148 9.664 201.871 9.924C201.455 10.288 201.125 10.7733 200.883 11.38C200.657 11.9693 200.545 12.758 200.545 13.746V21H199.037ZM224.892 21.312C223.626 21.312 222.586 20.9827 221.772 20.324C220.974 19.6653 220.576 18.7813 220.576 17.672C220.576 16.892 220.749 16.2507 221.096 15.748C221.46 15.2453 221.936 14.8553 222.526 14.578C223.115 14.3007 223.808 14.084 224.606 13.928L229.572 12.966C229.572 12.914 229.572 12.862 229.572 12.81C229.572 12.758 229.572 12.7147 229.572 12.68C229.572 11.9693 229.52 11.3973 229.416 10.964C229.329 10.5133 229.138 10.1493 228.844 9.872C228.566 9.59467 228.194 9.38667 227.726 9.248C227.275 9.10933 226.746 9.04 226.14 9.04C224.857 9.04 223.93 9.29133 223.358 9.794C222.786 10.2793 222.5 11.1027 222.5 12.264L221.018 12.056C221 11.3627 221.113 10.7387 221.356 10.184C221.616 9.612 221.971 9.15267 222.422 8.806C222.872 8.45933 223.418 8.208 224.06 8.052C224.718 7.87867 225.429 7.792 226.192 7.792C227.249 7.792 228.133 7.948 228.844 8.26C229.572 8.55467 230.118 9.02267 230.482 9.664C230.846 10.288 231.028 11.094 231.028 12.082V18.894C231.028 19.2753 231.071 19.5353 231.158 19.674C231.262 19.7953 231.487 19.856 231.834 19.856C232.128 19.856 232.458 19.8127 232.822 19.726L232.848 20.974C232.414 21.0607 231.998 21.104 231.6 21.104C230.889 21.104 230.369 20.9133 230.04 20.532C229.71 20.1507 229.563 19.492 229.598 18.556L229.754 18.4C229.442 19.284 228.878 19.9947 228.064 20.532C227.249 21.052 226.192 21.312 224.892 21.312ZM225.152 20.064C226.556 20.064 227.639 19.7173 228.402 19.024C229.182 18.3307 229.572 17.386 229.572 16.19V13.382L230.3 13.954L224.788 15.124L224.58 15.176C223.748 15.3667 223.132 15.644 222.734 16.008C222.335 16.3547 222.136 16.8833 222.136 17.594C222.136 18.3913 222.413 19.0067 222.968 19.44C223.522 19.856 224.25 20.064 225.152 20.064ZM235.041 21V8.078H236.549V11.744L236.445 11.458C236.514 10.7473 236.722 10.132 237.069 9.612C237.415 9.07467 237.875 8.65867 238.447 8.364C239.019 8.052 239.669 7.85267 240.397 7.766C240.518 7.74867 240.639 7.74 240.761 7.74C240.899 7.74 241.029 7.74 241.151 7.74C241.185 7.74 241.22 7.74 241.255 7.74C241.307 7.74 241.359 7.74 241.411 7.74L241.359 9.196C241.203 9.17867 240.951 9.17 240.605 9.17C239.773 9.17 239.053 9.33467 238.447 9.664C237.857 9.99333 237.389 10.5653 237.043 11.38C236.713 12.1947 236.549 13.2953 236.549 14.682V21H235.041ZM243.623 21V2.8H245.131V21H243.623ZM244.975 16.138L245.001 14.422L251.813 8.078H253.815L248.433 12.966L247.913 13.486L244.975 16.138ZM252.333 21L247.523 13.616L248.563 12.602L254.075 21H252.333Z" fill="#1A1414"/>
<path d="M2.72872 14.2285C1.2211 14.2285 0 13.0074 0 11.4998C0 9.99216 1.2211 8.77106 2.72872 8.77106C4.23633 8.77106 5.45743 9.99216 5.45743 11.4998C5.45743 13.0074 4.23633 14.2285 2.72872 14.2285ZM30.0159 8.77106C28.5083 8.77106 27.2872 9.99216 27.2872 11.4998C27.2872 13.0074 28.5083 14.2285 30.0159 14.2285C31.5235 14.2285 32.7446 13.0074 32.7446 11.4998C32.7446 9.99216 31.5235 8.77106 30.0159 8.77106ZM4.16675 18.1797C3.0125 19.1484 2.86106 20.8702 3.82975 22.0244C4.79845 23.1787 6.52027 23.3301 7.67452 22.3614C8.82876 21.3927 8.98021 19.6709 8.01151 18.5167C7.04282 17.3624 5.321 17.211 4.16675 18.1797ZM28.5779 4.81988C29.7321 3.85118 29.8835 2.12936 28.9148 0.975115C27.9462 -0.179133 26.2243 -0.330576 25.0701 0.638118C23.9158 1.60681 23.7644 3.32863 24.7331 4.48288C25.7018 5.63713 27.4236 5.78857 28.5779 4.81988ZM7.67452 0.639483C6.52027 -0.329212 4.79845 -0.179133 3.82975 0.976479C2.86106 2.13209 3.01114 3.85255 4.16675 4.82124C5.32236 5.78994 7.04282 5.63986 8.01151 4.48425C8.98021 3.32863 8.83013 1.60818 7.67452 0.639483ZM28.5779 18.1797C27.4236 17.211 25.7018 17.3611 24.7331 18.5167C23.7644 19.6709 23.9145 21.3927 25.0701 22.3614C26.2243 23.3301 27.9462 23.18 28.9148 22.0244C29.8835 20.8702 29.7335 19.1484 28.5779 18.1797ZM21.6101 12.332C20.4558 11.3633 18.734 11.5134 17.7653 12.669C16.7966 13.8246 16.9467 15.5451 18.1023 16.5138C19.2579 17.4825 20.9784 17.3324 21.9471 16.1768C22.9158 15.0212 22.7657 13.3007 21.6101 12.332ZM14.6423 6.48576C13.488 5.51706 11.7662 5.66714 10.7975 6.82276C9.82884 7.97837 9.97892 9.69882 11.1345 10.6675C12.2901 11.6362 14.0106 11.4861 14.9793 10.3305C15.948 9.17491 15.7979 7.45445 14.6423 6.48576Z" fill="#1A1414"/>
</g>
<defs>
<clipPath id="clip0_235_43">
<rect width="254" height="23" fill="white"/>
</clipPath>
</defs>
</svg>
